<svg xmlns="http://www.w3.org/2000/svg" viewBox="0 0 144.99 68.79"><g id="Слой_2" data-name="Слой 2"><g id="Слой_2-2" data-name="Слой 2"><path d="M28.27,53.42c.26-1.4-4.37-1.88-6.57-5.66-2.09-3.58-.63-7.78-.46-8.25.41-1.11,1.38-3.78,3.82-4.9,1.68-.76,2.45-.06,7.49-.45,2.9-.23,3.46-.52,3.83-.77,1.7-1.14,2.38-3.35,2.9-5,.68-2.23.34-2.74,1.07-3.52,1.27-1.37,3.59-1.18,5-1.07,2.39.19,3,.92,5.35,1.38a18.53,18.53,0,0,0,5.81,0,58.07,58.07,0,0,0,12.69-3.21c5.83-2.13,3-.63,15.75-4.74,8.76-2.82,18.4-3.47,26.44-8a4,4,0,0,1,3.64-.08c1.21.64,1.28,1.27,2.78,2.37,1.29,1,2.81.87,4.59.77.74,0,1.16-.15,1.37-.46.35-.49,0-1.26-.3-2.14a6.47,6.47,0,0,0-1-1.84c-1.12-1.41-1.88-1-2.6-2.14s-.25-1.89-1.07-2.6a2.64,2.64,0,0,0-1.53-.53c-2.8-.22-10.61,4.24-11.08,4.51.07-.43-.27.22-.34.19s-.28-.17-1,1.41L54,21.32a1.64,1.64,0,0,1-1.6-1.15,1.16,1.16,0,0,1,.15-.77,9.36,9.36,0,0,0,.77-6,4.6,4.6,0,0,0-1.15-2.29,4.75,4.75,0,0,0-2.6-1.22,10.52,10.52,0,0,0-6.57.23c-2,.82-1.41,1.47-5.28,4.05-1.37.91-2.85,1.77-3.36,2.06a9.87,9.87,0,0,1-3.51,1c-1.81.58-1.74.38-5.35.58-1.25.06-1.15-.21-1.87-.35C21,17,19,17,17,16.27c-.31-.11-6-2-10.89.57a11.33,11.33,0,0,0-3.44,2.87,12.94,12.94,0,0,0-2.6,7.34C-.29,31.1.82,34.12,2,37.25A29.46,29.46,0,0,0,7.83,47.34a56.35,56.35,0,0,0,5.73,5c2.52,2.07,3.13,2.39,3.78,2.63a14,14,0,0,0,7.73.52C27.23,55.06,28.14,54.13,28.27,53.42Z"/><circle cx="107.13" cy="4.51" r="1.35"/><circle cx="111.17" cy="2.58" r="1.35"/><circle cx="115.04" cy="1.35" r="1.35"/><path d="M44.26,49.41a9.66,9.66,0,0,1-2.35.86,12.84,12.84,0,0,1-2.95.31A8.75,8.75,0,0,1,33.46,49a5.6,5.6,0,0,1-2.06-4.74,6.26,6.26,0,0,1,2.09-4.8,8.24,8.24,0,0,1,5.78-1.91,15.74,15.74,0,0,1,2.55.19,15.29,15.29,0,0,1,2.44.65l-1,2.2a11.27,11.27,0,0,0-2-.51,11.65,11.65,0,0,0-2-.16A4.66,4.66,0,0,0,36,41a4,4,0,0,0-1.19,3.15A3.8,3.8,0,0,0,36,47.21a4.66,4.66,0,0,0,3.09,1,6.68,6.68,0,0,0,1.05-.07,4.79,4.79,0,0,0,.81-.2V45.45H38.07V43.18h6.19Z"/><path d="M59.29,44.9a5.51,5.51,0,0,1-1.52,4.26,6.52,6.52,0,0,1-4.59,1.42,6.32,6.32,0,0,1-4.44-1.38A5.48,5.48,0,0,1,47.25,45V37.76h3.29v7.31a3.32,3.32,0,0,0,.69,2.29,2.66,2.66,0,0,0,2.08.77,2.63,2.63,0,0,0,2-.74A3.18,3.18,0,0,0,56,45.18V37.76h3.27Z"/><path d="M66.07,50.36H62.79V37.76h3.28Z"/><path d="M79.93,40.07H75.78V50.36H72.49V40.07H68.36V37.76H79.93Z"/><path d="M79.25,50.36l5.29-12.6h3.89l5.18,12.6H90l-1-2.63H83.77l-1,2.63Zm5.23-4.84h3.81l-1.6-4.38q-.09-.26-.15-.45a3.13,3.13,0,0,1-.1-.47h-.08c0,.17-.07.33-.1.46s-.09.27-.15.43Z"/><path d="M107.59,50.36h-3.71l-1.94-3.1a4.2,4.2,0,0,0-.94-1.14,1.86,1.86,0,0,0-1.08-.44H99v4.68H95.76V37.76H101a7.2,7.2,0,0,1,4,.89,3,3,0,0,1,1.33,2.68,3,3,0,0,1-.86,2.16,4.89,4.89,0,0,1-2.33,1.34v0a2.61,2.61,0,0,1,1.21.74,6.79,6.79,0,0,1,1,1.16ZM99,39.88v3.65h1.42a2.53,2.53,0,0,0,1.71-.55,1.77,1.77,0,0,0,.64-1.37,1.53,1.53,0,0,0-.57-1.3,2.88,2.88,0,0,0-1.72-.43Z"/><text/><path d="M49,67.6l.9-1.22a7.3,7.3,0,0,0,1.8.76,7.82,7.82,0,0,0,2,.24,4,4,0,0,0,2.14-.53,1.82,1.82,0,0,0,.13-3,7.7,7.7,0,0,0-2.31-1,8.92,8.92,0,0,1-3.09-1.44,2.65,2.65,0,0,1-1-2.15A3,3,0,0,1,51,56.74a5.56,5.56,0,0,1,3.43-1,9.63,9.63,0,0,1,1.95.19,10.54,10.54,0,0,1,1.93.62l-.75,1.28a7.68,7.68,0,0,0-1.58-.52,8.08,8.08,0,0,0-1.67-.17,3.53,3.53,0,0,0-2,.52,1.65,1.65,0,0,0-.74,1.43,1.49,1.49,0,0,0,.68,1.27,8.8,8.8,0,0,0,2.29,1,8.57,8.57,0,0,1,3.17,1.51,2.92,2.92,0,0,1,1,2.3,3.17,3.17,0,0,1-1.3,2.59,5.71,5.71,0,0,1-3.65,1,9.39,9.39,0,0,1-2.42-.29A8.73,8.73,0,0,1,49,67.6Z"/><path d="M72.34,67.94a10.07,10.07,0,0,1-2.07.65,10.84,10.84,0,0,1-2.2.2,7.24,7.24,0,0,1-5.15-1.72,6,6,0,0,1-1.85-4.56,6.27,6.27,0,0,1,2.06-4.91,7.76,7.76,0,0,1,5.36-1.83,11,11,0,0,1,2,.16,10.5,10.5,0,0,1,1.86.54l-.68,1.32a7.71,7.71,0,0,0-1.53-.44,8.25,8.25,0,0,0-1.61-.14,5.54,5.54,0,0,0-4,1.4A5,5,0,0,0,63,62.41,4.73,4.73,0,0,0,64.43,66a5.29,5.29,0,0,0,3.78,1.34,8.12,8.12,0,0,0,3.39-.72Z"/><path d="M86.69,68.58H84.83V62.89H77.44v5.69H75.59V56h1.85v5.48h7.39V56h1.86Z"/><path d="M97,68.79A7,7,0,0,1,92,67a6,6,0,0,1-1.87-4.6A6.36,6.36,0,0,1,92,57.58a7.18,7.18,0,0,1,5.17-1.81,6.79,6.79,0,0,1,4.88,1.75,6.06,6.06,0,0,1,1.85,4.61A6.37,6.37,0,0,1,102,67,7.12,7.12,0,0,1,97,68.79Zm0-1.43a4.61,4.61,0,0,0,5-5,5.2,5.2,0,0,0-1.3-3.78,4.8,4.8,0,0,0-3.6-1.33,4.87,4.87,0,0,0-3.62,1.4,5.63,5.63,0,0,0,0,7.36A4.74,4.74,0,0,0,97,67.36Z"/><path d="M113.25,68.79a7,7,0,0,1-5-1.76,6.07,6.07,0,0,1-1.87-4.6,6.39,6.39,0,0,1,1.91-4.85,7.2,7.2,0,0,1,5.18-1.81,6.78,6.78,0,0,1,4.87,1.75,6.06,6.06,0,0,1,1.86,4.61A6.38,6.38,0,0,1,118.32,67,7.12,7.12,0,0,1,113.25,68.79Zm0-1.43a4.61,4.61,0,0,0,5-5A5.2,5.2,0,0,0,117,58.54a4.8,4.8,0,0,0-3.6-1.33,4.91,4.91,0,0,0-3.62,1.4,5.63,5.63,0,0,0,0,7.36A4.74,4.74,0,0,0,113.26,67.36Z"/><path d="M131.31,68.58h-7.65V56h1.84V67.16h5.81Z"/></g></g></svg>